<svg width="180" height="34" viewBox="0 0 180 34" fill="none" xmlns="http://www.w3.org/2000/svg">
<path d="M23.0483 31.136C22.9524 30.9769 22.8219 30.8413 22.6664 30.7391C22.4572 30.6018 22.2121 30.5287 21.9616 30.5288C21.6479 30.5297 21.3463 30.6494 21.1181 30.8637C20.7466 31.2121 19.8329 31.4423 18.7901 31.4463C17.7473 31.4502 16.8304 31.2129 16.4573 30.8661C16.2285 30.6526 15.9267 30.5337 15.613 30.5336C15.3625 30.5343 15.1177 30.6083 14.9091 30.7463C14.754 30.8498 14.6241 30.9864 14.5288 31.1463C14.4335 31.3061 14.3752 31.485 14.3582 31.6701C14.3412 31.8552 14.3663 32.0417 14.4314 32.2158C14.4965 32.39 14.6001 32.5474 14.7345 32.6764C15.6035 33.5145 17.0912 33.9986 18.7957 33.9986C20.5002 33.9986 21.9807 33.5098 22.8465 32.6685C23.0485 32.4729 23.1783 32.2152 23.2149 31.9371C23.2516 31.659 23.1928 31.3767 23.0483 31.136Z" fill="#4F80FF"/>
<path d="M37.5236 8.6762C37.176 6.79207 34.8886 5.66033 30.7182 5.30477C30.3443 5.27303 29.26 5.19366 28.6605 5.17064C28.2664 4.59507 27.8225 4.05492 27.3338 3.55636C25.8515 2.04778 23.9906 0.961562 21.9443 0.41042C19.898 -0.140723 17.7408 -0.136709 15.6966 0.42204C13.6523 0.98079 11.7955 2.07392 10.3189 3.588C8.84217 5.10208 7.7994 6.98195 7.29874 9.03255C6.58121 9.31747 5.84534 9.64128 5.21312 9.94287C1.4373 11.7429 -0.302314 13.6079 0.0428986 15.4881C0.388111 17.3683 2.67385 18.504 6.84829 18.8556C7.64156 18.923 8.48586 18.9603 9.37081 18.9683H9.39074C9.4625 19.0619 9.53505 19.1556 9.60999 19.2468C9.82631 19.5114 10.0533 19.7669 10.2908 20.0135C10.5386 20.3415 10.7438 20.6994 10.9015 21.0786C11.4437 22.2468 11.8192 23.8214 12.0679 24.9754C12.08 25.0534 12.0982 25.1304 12.1221 25.2056C12.2877 25.8135 12.6149 26.3656 13.0693 26.804C14.3011 28.1691 16.57 28.8508 18.8398 28.8508C21.1096 28.8508 23.3786 28.1691 24.6104 26.804C25.0642 26.3652 25.3913 25.8132 25.5575 25.2056C25.5815 25.1304 25.5996 25.0534 25.6117 24.9754C25.8605 23.8214 26.236 22.2468 26.7781 21.0786C26.9353 20.6993 27.1402 20.3414 27.388 20.0135C27.6267 19.768 27.8539 19.5124 28.0697 19.2468C28.5036 18.7128 28.8904 18.1424 29.2257 17.5421C29.6526 16.7783 29.9928 15.9697 30.2398 15.131C30.9892 14.8365 31.698 14.531 32.3565 14.2175C36.1284 12.4175 37.868 10.5516 37.5236 8.6762ZM18.839 2.22302C20.2399 2.22407 21.6237 2.52903 22.8941 3.11666C24.1645 3.70429 25.291 4.56049 26.1952 5.62563C27.0994 6.69078 27.7595 7.93929 28.1296 9.28426C28.4998 10.6292 28.571 12.0383 28.3384 13.4135L28.2307 13.4516C28.0904 13.5045 27.9488 13.5545 27.8058 13.6016C27.1047 13.8429 26.3755 14.0743 25.6181 14.296C23.5898 14.8831 21.5322 15.3649 19.4537 15.7397C17.4606 16.1024 15.5033 16.3643 13.6497 16.5222C12.7961 16.5952 11.9667 16.6452 11.1615 16.6722C10.9693 16.6786 10.7772 16.6849 10.5882 16.6889H10.542C9.67875 15.2323 9.21775 13.5743 9.2057 11.8831C9.19364 10.192 9.63097 8.52768 10.4733 7.059C11.3157 5.59031 12.5332 4.36945 14.0024 3.52017C15.4715 2.67089 17.1401 2.22339 18.839 2.22302ZM7.03963 16.5881C3.3276 16.2706 2.43786 15.5325 2.43786 14.9397C2.43786 14.2175 2.83649 13.5905 6.19613 11.9905C6.43531 11.877 6.70877 11.7524 6.96628 11.6389C6.96628 11.696 6.96628 11.754 6.96628 11.8111C6.96285 13.4798 7.31615 15.1301 8.00272 16.6524H7.96206C7.65033 16.6357 7.34179 16.6127 7.03963 16.5897V16.5881ZM26.5326 17.5794C26.3524 17.8087 26.1443 18.1445 25.4595 18.9675C24.9518 19.5789 24.5576 20.2755 24.2955 21.0246C24.1105 21.5238 23.9503 22.0365 23.8099 22.5437C23.625 23.2143 23.4743 23.8738 23.3443 24.4754V24.4818L23.2981 24.5818C23.1717 24.9395 22.933 25.2473 22.6172 25.4595C21.8933 26.0762 20.3674 26.3833 18.8414 26.3833C17.3155 26.3833 15.7887 26.0762 15.0648 25.4595C14.7489 25.2474 14.5099 24.9396 14.3832 24.5818L14.3369 24.4818C14.3367 24.4797 14.3367 24.4775 14.3369 24.4754C14.207 23.8738 14.0555 23.2143 13.8705 22.5437C13.731 22.0365 13.5708 21.5238 13.3858 21.0246C13.1241 20.2755 12.7302 19.5788 12.2226 18.9675C12.2027 18.9437 12.1843 18.9206 12.1652 18.8984L12.3167 18.8905H12.3725C13.2431 18.8402 14.1368 18.7669 15.0537 18.6706C16.6163 18.5056 18.2323 18.2738 19.8707 17.9762C20.9956 17.7714 22.103 17.5413 23.1737 17.2897C24.021 17.0908 24.8469 16.8791 25.6516 16.6548C26.1991 16.5013 26.7348 16.3426 27.2589 16.1786L27.4183 16.1294L27.4598 16.1159C27.1966 16.6311 26.8871 17.1214 26.535 17.581L26.5326 17.5794ZM31.3671 12.1683C31.1482 12.2741 30.9231 12.3775 30.6919 12.4786C30.7041 12.259 30.7102 12.0376 30.7102 11.8143C30.7122 10.3689 30.4468 8.93547 29.9273 7.58572C30.1258 7.60001 30.3323 7.62541 30.491 7.6389C34.203 7.95636 35.2299 8.59128 35.2617 9.13811C35.304 9.87223 34.7268 10.5651 31.3671 12.1683Z" fill="#4F80FF"/>
<path d="M167.232 16.2512C167.748 15.2679 168.527 14.4459 169.483 13.8761C170.439 13.3063 171.535 13.0109 172.649 13.0226C173.69 13.0226 174.598 13.226 175.375 13.6329C176.099 13.9971 176.735 14.5154 177.236 15.1512V13.4964C177.236 13.3569 177.292 13.223 177.391 13.1243C177.49 13.0257 177.625 12.9702 177.765 12.9702H179.47C179.61 12.9702 179.745 13.0257 179.844 13.1243C179.943 13.223 179.999 13.3569 179.999 13.4964V26.1496C179.999 26.2896 179.943 26.4238 179.843 26.5228C179.744 26.6218 179.609 26.6774 179.469 26.6774H177.766C177.626 26.6774 177.491 26.6218 177.392 26.5228C177.292 26.4238 177.236 26.2896 177.236 26.1496V24.4528C176.771 25.0744 176.139 25.5924 175.339 26.0067C174.539 26.421 173.626 26.6282 172.6 26.6282C171.497 26.6375 170.415 26.3347 169.478 25.7551C168.533 25.1731 167.784 24.3602 167.232 23.3162C166.681 22.2723 166.404 21.0887 166.403 19.7655C166.403 18.4432 166.679 17.2718 167.232 16.2512ZM176.672 17.4464C176.329 16.8116 175.818 16.2823 175.194 15.9162C174.597 15.5685 173.917 15.3868 173.225 15.3901C172.521 15.3839 171.827 15.5686 171.22 15.9246C170.613 16.2805 170.114 16.7943 169.778 17.4107C169.402 18.0726 169.213 18.8578 169.213 19.7662C169.213 20.6747 169.402 21.4715 169.778 22.1567C170.119 22.8058 170.635 23.3481 171.267 23.7234C171.859 24.0754 172.536 24.2613 173.225 24.2615C173.917 24.2648 174.597 24.0831 175.194 23.7353C175.82 23.3668 176.332 22.8331 176.672 22.1932C177.048 21.5155 177.236 20.7218 177.236 19.8123C177.236 18.9028 177.048 18.1141 176.672 17.4464Z" fill="white"/>
<path d="M125.541 16.3168C126.056 15.3337 126.835 14.5117 127.791 13.9419C128.747 13.3721 129.842 13.0766 130.956 13.0882C131.998 13.0882 132.906 13.2916 133.683 13.6985C134.408 14.0627 135.043 14.581 135.545 15.2168V13.5628C135.545 13.4937 135.558 13.4253 135.585 13.3614C135.611 13.2976 135.65 13.2396 135.699 13.1907C135.748 13.1419 135.807 13.1031 135.871 13.0767C135.935 13.0502 136.004 13.0366 136.073 13.0366H137.778C137.919 13.0366 138.053 13.0921 138.152 13.1907C138.251 13.2894 138.307 13.4233 138.307 13.5628V26.2152C138.307 26.3552 138.251 26.4894 138.152 26.5884C138.052 26.6874 137.917 26.743 137.777 26.743H136.075C135.934 26.743 135.799 26.6874 135.7 26.5884C135.6 26.4894 135.545 26.3552 135.545 26.2152V24.5184C135.08 25.1401 134.448 25.658 133.647 26.0723C132.847 26.4866 131.934 26.693 130.908 26.6914C129.806 26.7007 128.723 26.3979 127.786 25.8184C126.829 25.2239 126.052 24.3807 125.541 23.3795C124.99 22.3372 124.715 21.1546 124.715 19.8319C124.715 18.5091 124.99 17.3374 125.541 16.3168ZM134.98 17.512C134.637 16.8773 134.126 16.3482 133.503 15.9819C132.906 15.6341 132.225 15.4524 131.534 15.4557C130.829 15.4495 130.136 15.6343 129.528 15.9902C128.921 16.3462 128.423 16.8599 128.086 17.4763C127.71 18.1382 127.522 18.9234 127.522 19.8319C127.522 20.7403 127.71 21.5374 128.086 22.2231C128.429 22.8722 128.945 23.4142 129.578 23.789C130.17 24.141 130.846 24.327 131.536 24.3271C132.228 24.3304 132.908 24.1487 133.505 23.8009C134.131 23.4324 134.642 22.8987 134.982 22.2588C135.359 21.5811 135.547 20.7874 135.547 19.8779C135.547 18.9684 135.358 18.1797 134.98 17.512Z" fill="white"/>
<path d="M86.1169 16.3167C86.6327 15.3335 87.4116 14.5114 88.3676 13.9416C89.3236 13.3718 90.4193 13.0764 91.5335 13.0881C92.5747 13.0881 93.4836 13.2916 94.2601 13.6985C94.985 14.0626 95.6205 14.5809 96.1217 15.2167V13.5628C96.1228 13.4237 96.179 13.2908 96.2782 13.193C96.3774 13.0951 96.5115 13.0403 96.6511 13.0405H98.3565C98.4966 13.0405 98.6311 13.096 98.7302 13.1946C98.8293 13.2933 98.885 13.4272 98.885 13.5667V26.2151C98.8848 26.3552 98.8288 26.4894 98.7292 26.5884C98.6297 26.6873 98.4947 26.7429 98.3541 26.7429H96.6511C96.5815 26.7429 96.5126 26.7293 96.4482 26.7027C96.3839 26.6762 96.3255 26.6373 96.2762 26.5883C96.227 26.5393 96.1879 26.4811 96.1613 26.4171C96.1347 26.3531 96.1209 26.2844 96.1209 26.2151V24.5183C95.6564 25.14 95.0239 25.658 94.2235 26.0723C93.423 26.4866 92.5104 26.6929 91.4857 26.6913C90.3816 26.7014 89.2974 26.3986 88.3596 25.8183C87.4026 25.2232 86.6262 24.3802 86.1138 23.3794C85.5615 22.336 85.2854 21.1524 85.2854 19.8286C85.2854 18.5048 85.5626 17.3342 86.1169 16.3167ZM95.5573 17.512C95.2143 16.8773 94.7034 16.3481 94.08 15.9818C93.4824 15.634 92.8021 15.4523 92.1099 15.4556C91.4054 15.4496 90.7124 15.6344 90.1053 15.9903C89.4982 16.3463 88.9998 16.8599 88.6634 17.4762C88.2871 18.1381 88.0989 18.9233 88.0989 19.8318C88.0989 20.7403 88.2871 21.5374 88.6634 22.2231C89.0049 22.872 89.5204 23.414 90.1527 23.7889C90.7443 24.141 91.4207 24.3269 92.1099 24.327C92.8021 24.3303 93.4824 24.1486 94.08 23.8008C94.7059 23.4323 95.2172 22.8986 95.5573 22.2588C95.9331 21.581 96.1212 20.7874 96.1217 19.8778C96.1223 18.9683 95.9341 18.1797 95.5573 17.512Z" fill="white"/>
<path d="M44.47 16.3168C44.9856 15.3335 45.7645 14.5115 46.7206 13.9418C47.6766 13.3721 48.7724 13.0769 49.8865 13.089C50.9272 13.089 51.8361 13.2922 52.6131 13.6985C53.3385 14.0625 53.9746 14.5808 54.4763 15.2168V13.5628C54.4762 13.4937 54.4898 13.4253 54.5163 13.3615C54.5428 13.2977 54.5816 13.2397 54.6306 13.1908C54.6797 13.1419 54.7379 13.1031 54.802 13.0767C54.866 13.0502 54.9347 13.0366 55.0041 13.0366H56.7087C56.7781 13.0365 56.8469 13.0501 56.911 13.0765C56.9752 13.1029 57.0335 13.1416 57.0826 13.1905C57.1318 13.2394 57.1707 13.2974 57.1972 13.3613C57.2237 13.4252 57.2373 13.4937 57.2372 13.5628V26.2152C57.2372 26.3552 57.1814 26.4894 57.0819 26.5884C56.9825 26.6874 56.8477 26.743 56.7071 26.743H55.0057C54.8652 26.7428 54.7306 26.6871 54.6313 26.5881C54.5321 26.4892 54.4763 26.355 54.4763 26.2152V24.5184C54.0118 25.1401 53.379 25.658 52.5781 26.0723C51.7771 26.4866 50.864 26.693 49.8387 26.6914C48.7357 26.7009 47.6526 26.3981 46.7158 25.8184C45.7588 25.2233 44.9824 24.3802 44.47 23.3795C43.9172 22.3361 43.6411 21.1525 43.6416 19.8287C43.6421 18.5049 43.9183 17.3342 44.47 16.3168ZM53.9103 17.512C53.5671 16.8775 53.0562 16.3484 52.433 15.9819C51.8354 15.6341 51.1551 15.4524 50.4629 15.4557C49.7726 15.452 49.0934 15.6293 48.4937 15.97C47.8707 16.327 47.3594 16.849 47.0164 17.4779C46.6401 18.1398 46.4519 18.925 46.4519 19.8334C46.4519 20.7419 46.6401 21.539 47.0164 22.2247C47.3577 22.8738 47.8732 23.4159 48.5057 23.7906C49.0973 24.1426 49.7737 24.3286 50.4629 24.3287C51.1551 24.332 51.8354 24.1502 52.433 23.8025C53.0587 23.4337 53.5699 22.9001 53.9103 22.2604C54.2855 21.5827 54.4737 20.789 54.4747 19.8795C54.4758 18.97 54.2876 18.1808 53.9103 17.512Z" fill="white"/>
<path d="M79.8393 13.7345C80.6644 14.1655 81.3419 14.8314 81.7854 15.6472C82.2574 16.4937 82.4933 17.5141 82.4933 18.7083V26.2154C82.4933 26.3555 82.4375 26.4898 82.3381 26.5889C82.2387 26.688 82.1039 26.7438 81.9632 26.744H80.3073C80.1666 26.7438 80.0317 26.688 79.9323 26.5889C79.8329 26.4898 79.7771 26.3555 79.7771 26.2154V19.1146C79.7771 17.9353 79.4808 17.0305 78.8881 16.4004C78.2955 15.7702 77.4868 15.4554 76.4621 15.4559C75.4368 15.4559 74.6241 15.7707 74.0241 16.4004C73.424 17.03 73.1237 17.9348 73.1232 19.1146V26.2154C73.1232 26.3555 73.0674 26.4898 72.9679 26.5889C72.8685 26.688 72.7337 26.7438 72.593 26.744H70.9395C70.7988 26.7438 70.664 26.688 70.5646 26.5889C70.4651 26.4898 70.4093 26.3555 70.4093 26.2154V19.1146C70.4093 17.9353 70.113 17.0305 69.5204 16.4004C68.9277 15.7702 68.1191 15.4554 67.0943 15.4559C66.0691 15.4559 65.2564 15.7707 64.6563 16.4004C64.0562 17.03 63.7559 17.9348 63.7554 19.1146V26.2154C63.7554 26.3555 63.6996 26.4898 63.6002 26.5889C63.5008 26.688 63.3659 26.7438 63.2252 26.744H61.551C61.4102 26.744 61.2751 26.6883 61.1755 26.5892C61.076 26.4901 61.02 26.3556 61.02 26.2154V13.5686C61.02 13.4284 61.076 13.294 61.1755 13.1949C61.2751 13.0957 61.4102 13.04 61.551 13.04H63.2252C63.3659 13.0402 63.5008 13.096 63.6002 13.1951C63.6996 13.2942 63.7554 13.4286 63.7554 13.5686V14.8107C64.215 14.2591 64.7994 13.8239 65.4607 13.5408C66.1572 13.2367 66.9102 13.0821 67.6707 13.0869C68.7279 13.0869 69.6727 13.3099 70.505 13.7559C71.328 14.193 71.9984 14.8685 72.4272 15.6932C72.8263 14.8953 73.4506 14.2604 74.2999 13.7885C75.1367 13.3236 76.0802 13.0824 77.0385 13.0885C78.0813 13.0885 79.0149 13.3038 79.8393 13.7345Z" fill="white"/>
<path d="M105.421 8.78651V26.2151C105.421 26.3557 105.365 26.4905 105.265 26.59C105.165 26.6894 105.03 26.7452 104.888 26.7452H103.214C103.073 26.7452 102.938 26.6894 102.838 26.59C102.738 26.4905 102.682 26.3557 102.682 26.2151V8.78651C102.682 8.6459 102.738 8.51105 102.838 8.41163C102.938 8.3122 103.073 8.25635 103.214 8.25635H104.888C105.03 8.25635 105.165 8.3122 105.265 8.41163C105.365 8.51105 105.421 8.6459 105.421 8.78651Z" fill="white"/>
<path d="M117.271 13.6987C118.062 14.104 118.682 14.6087 119.13 15.213V13.3669C119.13 13.2268 119.186 13.0923 119.285 12.9932C119.385 12.8941 119.52 12.8384 119.661 12.8384H121.366C121.507 12.8386 121.642 12.8944 121.741 12.9935C121.841 13.0926 121.896 13.2269 121.896 13.3669V26.6916C121.896 27.9027 121.64 28.9826 121.128 29.9312C120.62 30.8748 119.848 31.6514 118.906 32.1669C117.937 32.7087 116.781 32.9796 115.435 32.9796C113.642 32.9796 112.153 32.5614 110.971 31.7249C109.971 31.0191 109.336 30.1008 109.066 28.9701C109.047 28.8923 109.047 28.8114 109.064 28.7333C109.081 28.6552 109.116 28.582 109.166 28.5191C109.215 28.4563 109.279 28.4055 109.351 28.3705C109.423 28.3355 109.502 28.3172 109.583 28.3169H111.298C111.402 28.3178 111.504 28.3489 111.591 28.4066C111.678 28.4642 111.747 28.5459 111.788 28.6416C112.026 29.1796 112.43 29.6254 113.001 29.9789C113.68 30.4021 114.493 30.6138 115.439 30.6138C116.544 30.6138 117.436 30.2789 118.117 29.609C118.797 28.9392 119.136 27.9667 119.134 26.6916V24.4995C118.669 25.1191 118.041 25.6397 117.251 26.0614C116.46 26.4831 115.56 26.6947 114.549 26.6963C113.434 26.7069 112.34 26.4043 111.39 25.8233C110.428 25.2312 109.647 24.3877 109.132 23.3844C108.58 22.341 108.304 21.1574 108.304 19.8336C108.304 18.5098 108.58 17.3381 109.132 16.3185C109.648 15.3353 110.427 14.5133 111.383 13.9434C112.339 13.3736 113.435 13.0782 114.549 13.09C115.571 13.0889 116.478 13.2918 117.271 13.6987ZM118.568 17.5122C118.225 16.8776 117.715 16.3484 117.091 15.982C116.494 15.6343 115.813 15.4525 115.121 15.4558C114.431 15.4521 113.752 15.6295 113.152 15.9701C112.529 16.3272 112.018 16.8492 111.675 17.4781C111.297 18.14 111.109 18.9252 111.11 19.8336C111.111 20.7421 111.3 21.5392 111.675 22.2249C112.016 22.874 112.532 23.4161 113.164 23.7908C113.756 24.1429 114.432 24.3288 115.121 24.3289C115.813 24.3321 116.494 24.1504 117.091 23.8027C117.717 23.4341 118.228 22.9004 118.568 22.2606C118.944 21.5828 119.132 20.7892 119.132 19.8796C119.132 18.9701 118.944 18.181 118.568 17.5122Z" fill="white"/>
<path d="M160.99 13.7345C161.815 14.1653 162.492 14.8312 162.935 15.6472C163.408 16.4937 163.644 17.5141 163.644 18.7083V26.2154C163.644 26.3555 163.588 26.4898 163.489 26.5889C163.389 26.688 163.254 26.7438 163.114 26.744H161.46C161.32 26.7438 161.185 26.688 161.085 26.5889C160.986 26.4898 160.93 26.3555 160.93 26.2154V19.1146C160.93 17.9353 160.634 17.0305 160.041 16.4004C159.448 15.7702 158.64 15.4554 157.615 15.4559C156.59 15.4559 155.777 15.7707 155.177 16.4004C154.577 17.03 154.277 17.9348 154.276 19.1146V26.2154C154.276 26.3556 154.22 26.4901 154.121 26.5892C154.021 26.6883 153.886 26.744 153.745 26.744H152.092C151.952 26.7438 151.817 26.688 151.717 26.5889C151.618 26.4898 151.562 26.3555 151.562 26.2154V19.1146C151.562 17.9353 151.266 17.0305 150.673 16.4004C150.081 15.7702 149.272 15.4554 148.247 15.4559C147.222 15.4559 146.409 15.7707 145.809 16.4004C145.209 17.03 144.909 17.9348 144.908 19.1146V26.2154C144.908 26.3556 144.852 26.4901 144.753 26.5892C144.653 26.6883 144.518 26.744 144.377 26.744H142.703C142.562 26.744 142.427 26.6883 142.328 26.5892C142.228 26.4901 142.172 26.3556 142.172 26.2154V13.5678C142.172 13.4278 142.228 13.2935 142.328 13.1946C142.427 13.0956 142.562 13.04 142.703 13.04H144.377C144.518 13.04 144.653 13.0956 144.753 13.1946C144.852 13.2935 144.908 13.4278 144.908 13.5678V14.8107C145.368 14.2591 145.952 13.8239 146.614 13.5408C147.31 13.2364 148.063 13.0814 148.824 13.0861C149.881 13.0861 150.826 13.3094 151.658 13.7559C152.481 14.1927 153.151 14.868 153.579 15.6924C153.98 14.8956 154.604 14.2607 155.453 13.7877C156.289 13.3209 157.233 13.0778 158.191 13.0821C159.231 13.0863 160.163 13.3038 160.99 13.7345Z" fill="white"/>
</svg>
